<svg xmlns="http://www.w3.org/2000/svg" viewBox="0 0 180 110">
  <path d="M99.9 51.2H44.5c4.2 9.1 13.4 15.2 25 15.2h63.3c11.6 0 22.9-6.1 30.4-15.2H99.9z" />
  <path d="M135.1 15.8C134.4 7 127.6.6 118.2.6H81.1C69.5.6 58.2 6.7 50.8 15.8h64.8c2.3-.1 4.2 1.7 4.3 4 0 .4 0 .7-.1 1.1-.5 2.7-2.7 4.7-5.4 5H31.8c-11.9 0-23.2 5.6-30.3 15.2H111c8.2 0 16.1-4.9 20.5-11.9 1.6-2.6 2.8-5.4 3.3-8.4.3-1.6.4-3.3.3-5z" />
  <path d="M20.9 87.6v.2l-.4 2.4v.3c-.1.4-.5.7-.9.7h-8c-1.3 0-1.9.4-2.2 1.4-.1.2-.1.5-.2.7l-.4 2.4h7.9c.3 0 .5.2.5.4v.2l-.5 2.8c-.1.3-.4.6-.7.6H8.1l-1.5 8.5c-.1.4-.5.7-.9.8H2.1c-.4 0-.7-.3-.7-.7v-.1L4 93.1c.9-5 3.7-6.2 7.7-6.2h8.5c.3 0 .6.2.6.4V87.6h.1zm152.6 7c0 .5-.1 1-.2 1.5H165c.5-2.9 2-5 5.1-5 2.1 0 3.4 1.2 3.4 3.5m5.1.1c0-4.6-2.5-8.1-7.7-8.1-6 0-9.9 2.7-11.2 10.1l-.4 2.4c-.2.8-.2 1.6-.2 2.4 0 5.9 4.2 7.9 7.7 7.9 2.7.1 5.3-.2 7.9-.7.6 0 1-.4 1-1l.5-2.6v-.2c0-.4-.3-.4-.6-.4h-.2c-2.4.3-4.9.4-7.3.4-2.9 0-4-1.4-4-3.5 0-.5.1-1.1.2-1.6h12.8c.6 0 .8-.4.9-1l.3-1.9c.2-.7.3-1.5.3-2.2m-23.2 5.4l.7-4.4v-.1c0-.3-.2-.6-.4-.6H152c-.4 0-.9.3-.9.7l-.7 4.4v.2c0 .3.2.6.4.6h3.7c.4 0 .8-.4.9-.8m-32.2 8.6l.5-3c.1-.3-.1-.6-.4-.7h-.6c-2.1 0-3.1-.7-3.1-2.9 0-.7 0-1.4.2-2.1l2.2-12.1v-.3c0-.4-.2-.7-.6-.7h-3.7c-.4.1-.8.4-.9.8l-2.1 11.8c-.2.8-.2 1.7-.2 2.5 0 6.4 5.3 7.3 7.5 7.3h.3c.4 0 .8-.2.9-.6m-13.6-8.4l2.2-12.5v-.2c0-.4-.2-.7-.6-.7h-3.7c-.4.1-.8.4-.9.8l-2.2 12.1c-.7 4-2.3 5-4.6 5h-.2c-2.1 0-3.1-.7-3.1-2.9 0-.7 0-1.4.2-2.1l2.2-12.1v-.1c0-.4-.2-.7-.6-.7h-3.7c-.4.1-.8.4-.9.8l-2.1 11.8c-.2.8-.2 1.7-.2 2.5 0 6.4 5.3 7.3 7.5 7.3h.2c3 .1 9-.5 10.5-9m-22.1-5.8c.1-.7.2-1.4.2-2.1 0-3.7-2.1-5.8-6.7-5.8h-.9c-1.9-.1-3.9.4-5.5 1.5-1-1-2.6-1.5-4.9-1.5h-.9c-5 0-8.3 1.9-9.3 7.5L57 108.2v.2c0 .4.2.7.6.7h3.7c.4-.1.8-.4.9-.8l2.5-14.1c.5-2.7 1.5-3.2 3.3-3.2h.9c1.7 0 2.2.8 2.2 1.8 0 .4-.1.9-.2 1.3l-2.5 14.1v.2c0 .4.2.7.6.7h3.7c.4-.1.8-.4.9-.8l2.5-14.1c.4-2.2.9-3.2 3.1-3.2h.9c1.8 0 2.4.7 2.4 1.8 0 .4-.1.9-.2 1.3l-2.5 14.1v.2c0 .4.2.7.6.7h3.7c.4-.1.8-.4.9-.8l2.5-13.8zm-30.9-4.2l.5-3v-.1c0-.5-.6-.5-1-.5-2.8-.1-5.5.3-8.2 1.1-.6.1-1.1.6-1.3 1.2l-3.4 19.3v.2c0 .4.2.7.6.7h3.6c.4-.1.8-.4.9-.8l3-17c1.3-.2 2.6-.3 3.9-.3 1-.1 1.3-.4 1.4-.8m116.9 4.3c0 .5-.1 1-.2 1.5H165c.5-2.9 2-5 5.1-5 2.1 0 3.4 1.2 3.4 3.5m5.1.1c0-4.6-2.5-8.1-7.7-8.1-6 0-9.9 2.7-11.2 10.1l-.4 2.4c-.2.8-.2 1.6-.2 2.4 0 5.9 4.2 7.9 7.7 7.9 2.7.1 5.3-.2 7.9-.7.6 0 1-.4 1-1l.5-2.6v-.2c0-.4-.3-.4-.6-.4h-.2c-2.4.3-4.9.4-7.3.4-2.9 0-4-1.4-4-3.5 0-.5.1-1.1.2-1.6h12.8c.6 0 .8-.4.9-1l.3-1.9c.2-.7.3-1.5.3-2.2m-40-3.8c-3.4 0-4.6 2.2-5.2 5.6l-.5 3c-.2.8-.2 1.5-.2 2.3 0 2.2.9 3.3 3.5 3.3 1.3 0 2.5-.1 3.8-.3l2.4-13.7c-1.3-.1-2.5-.2-3.8-.2m9.4-2.2l-3.3 18.6c-.1.6-.3.8-1.3 1.1-2.7.6-5.4 1-8.1 1-5.3 0-7.9-3.2-7.9-7.6 0-.7.1-1.5.2-2.2l.5-3c1.1-6.8 4.8-9.9 11.2-9.9 2.6 0 5.2.4 7.7 1 .7.2.9.4.9.7.1.1.1.2.1.3m-112.1 6c0 .6 0 1.1-.2 1.7l-.5 3.2c-.7 3.7-2.4 5.3-5.1 5.3-2.3 0-3.5-1.3-3.5-3.6 0-.6 0-1.1.2-1.7l.6-3.2c.7-3.9 2.7-5.3 5.1-5.3 2.4 0 3.4 1.3 3.4 3.6m5.2-.3c0-4.1-2.5-7.7-7.9-7.7-6.2 0-9.9 2.9-11.1 9.8l-.5 3.1c-.1.6-.2 1.3-.2 1.9 0 4.1 2.5 7.9 7.9 7.9 6.2 0 9.9-3.3 11.1-9.8l.6-3.2c0-.7.1-1.4.1-2" />
</svg>