<svg xmlns="http://www.w3.org/2000/svg" viewBox="0 0 147.96 57.96">
  <path d="M81.48 0C73.92 7.56 64.32 15 51.6 15l-7.68 10.8h15.12l-11 15.72H32.88L21.36 57.96H0L40.64 0z"/>
  <path d="M82.2 53.76l27.96 1.92-.12.12-36.36 2.16 11.88-16.8 33.36 2.04-.12.12-30.6 2.04-.12.12 27.96 1.8-.12.24-30.6 1.92-.12.24 27.84 1.8-.12.12-30.6 2.04-.12.12zM147.84 2.04L101.28 4.2v.12L145.08 6l-.12.12L98.4 8.28v.12l43.8 1.68-.12.24-46.56 2.04-.12.24 43.8 1.68-.12.12-46.44 2.16-.12.12 43.8 1.68-.12.12-46.44 2.16-.12.12 43.8 1.8-.12.12-46.44 2.04-.12.24 43.8 1.68-.12.12-46.56 2.16v.12l43.8 1.68-.12.24L81.12 33l-.12.12 43.68 1.8v.12l-46.56 2.04v.24L121.8 39l-.12.12-52.32 2.4L98.52 0l49.44 1.92-.12.12z" />
</svg>