<svg xmlns="http://www.w3.org/2000/svg" viewBox="0 0 30 28">
  <path d="M20 23.5c0 .266-.234.5-.5.5h-15c-.578 0-.5-.609-.5-1v-9H1c-.547 0-1-.453-1-1 0-.234.078-.469.234-.641l5-6c.187-.219.469-.344.766-.344s.578.125.766.344l5 6c.156.172.234.406.234.641 0 .547-.453 1-1 1H8v6h9c.141 0 .297.063.391.172l2.5 3c.063.094.109.219.109.328zM30 17c0 .234-.078.469-.234.641l-5 6c-.187.219-.469.359-.766.359s-.578-.141-.766-.359l-5-6C18.078 17.469 18 17.235 18 17c0-.547.453-1 1-1h3v-6h-9c-.141 0-.297-.063-.391-.187l-2.5-3C10.046 6.735 10 6.61 10 6.5c0-.266.234-.5.5-.5h15c.578 0 .5.609.5 1v9h3c.547 0 1 .453 1 1z"/>
</svg>
