<?xml version="1.0" encoding="utf-8"?><!DOCTYPE svg PUBLIC "-//W3C//DTD SVG 1.1//EN" "http://www.w3.org/Graphics/SVG/1.1/DTD/svg11.dtd"><svg version="1.1" xmlns="http://www.w3.org/2000/svg" xmlns:xlink="http://www.w3.org/1999/xlink" width="32" height="32" viewBox="0 0 32 32" data-tags="eye"><g fill="#444" transform="scale(0.03125 0.03125)"><path d="M512 288v0c288 0 416 224 416 224s-128 224-416 224c-288 0-416-224-416-224s128-224 416-224zM512 640c70.692 0 128-57.308 128-128s-57.308-128-128-128c-70.692 0-128 57.308-128 128s57.308 128 128 128v0zM512 608v0c-53.019 0-96-42.981-96-96s42.981-96 96-96c53.019 0 96 42.981 96 96s-42.981 96-96 96zM512 544c17.673 0 32-14.327 32-32s-14.327-32-32-32c-17.673 0-32 14.327-32 32s14.327 32 32 32v0z" /></g></svg>