<?xml version="1.0" encoding="utf-8"?><!DOCTYPE svg PUBLIC "-//W3C//DTD SVG 1.1//EN" "http://www.w3.org/Graphics/SVG/1.1/DTD/svg11.dtd"><svg version="1.1" xmlns="http://www.w3.org/2000/svg" xmlns:xlink="http://www.w3.org/1999/xlink" width="24" height="28" viewBox="0 0 24 28" data-code="61896" data-tags="file-movie-o,file-video-o"><g fill="#444" transform="scale(0.02734375 0.02734375)"><path d="M838.857 217.143c21.143 21.143 38.857 63.429 38.857 93.714v658.286c0 30.286-24.571 54.857-54.857 54.857h-768c-30.286 0-54.857-24.571-54.857-54.857v-914.286c0-30.286 24.571-54.857 54.857-54.857h512c30.286 0 72.571 17.714 93.714 38.857zM585.143 77.714v214.857h214.857c-3.429-9.714-8.571-19.429-12.571-23.429l-178.857-178.857c-4-4-13.714-9.143-23.429-12.571zM804.571 950.857v-585.143h-237.714c-30.286 0-54.857-24.571-54.857-54.857v-237.714h-438.857v877.714h731.429zM438.857 438.857c40 0 73.143 33.143 73.143 73.143v219.429c0 40-33.143 73.143-73.143 73.143h-219.429c-40 0-73.143-33.143-73.143-73.143v-219.429c0-40 33.143-73.143 73.143-73.143h219.429zM720 440c6.857 2.857 11.429 9.714 11.429 17.143v329.143c0 7.429-4.571 14.286-11.429 17.143-2.286 0.571-4.571 1.143-6.857 1.143-4.571 0-9.714-1.714-13.143-5.143l-151.429-152v-51.429l151.429-152c3.429-3.429 8.571-5.143 13.143-5.143 2.286 0 4.571 0.571 6.857 1.143z" /></g></svg>