<svg xmlns="http://www.w3.org/2000/svg" viewBox="0 0 556.11 112.95">
  <path d="M100.76 64.93v15.84a36.17 36.17 0 0 1-36.06 36.07H41.92A36.17 36.17 0 0 1 5.85 80.77V80a12.26 12.26 0 0 1-.1-1.5V16.9a12.33 12.33 0 0 1 12.3-12.3 12.33 12.33 0 0 1 12.3 12.3v61.57a12.2 12.2 0 0 1-.14 1.8v1.13A10.8 10.8 0 0 0 41 92.16h24.64A10.8 10.8 0 0 0 76.4 81.4V62.3h.05v-4.36a36.77 36.77 0 0 1 36.66-36.66 36.77 36.77 0 0 1 36.67 36.66V81.4a10.8 10.8 0 0 0 10.76 10.76h24.67A10.8 10.8 0 0 0 196 81.4V37.26A34 34 0 0 1 229.82 4h110a34.12 34.12 0 0 1 34 34 34.12 34.12 0 0 1-34 34h-33.7v-.07h-37.48a9.6 9.6 0 0 0-9.57 9.57 9.6 9.6 0 0 0 9.57 9.57h93a12.4 12.4 0 0 1 12.3 12.42 12.4 12.4 0 0 1-12.3 12.4H300a12.08 12.08 0 0 1-3-.37h-28.3a34.12 34.12 0 0 1-34-34 34.12 34.12 0 0 1 34-34h42.82v.07h28.38a9.6 9.6 0 0 0 9.57-9.6 9.6 9.6 0 0 0-9.57-9.57H230.06a9.76 9.76 0 0 0-9.7 8.84v43.5a36.17 36.17 0 0 1-36.07 36.07h-22.8a36.17 36.17 0 0 1-36.06-36.07V57.85a12.35 12.35 0 0 0-12.32-12.32 12.35 12.35 0 0 0-12.32 12.32v7.08zM532.63 115.9H420a36.17 36.17 0 0 1-36.07-36.08V40A36.17 36.17 0 0 1 420 3.9h129.58a12.33 12.33 0 0 1 12.3 12.28 12.33 12.33 0 0 1-12.3 12.3H488a12.23 12.23 0 0 1-2.32-.23h-66.32A10.8 10.8 0 0 0 408.6 39v41.77a10.8 10.8 0 0 0 10.76 10.76h66.3a12.23 12.23 0 0 1 2.34-.23h61.58a12.33 12.33 0 0 1 12.3 12.3 12.33 12.33 0 0 1-12.3 12.28z"/>
</svg>