<svg xmlns="http://www.w3.org/2000/svg" viewBox="0 0 360.09 360.07">
  <path d="M191.3 33.7h67.3V31 11.2a11.2 11.2 0 0 1 22-3 20.4 20.4 0 0 1 .6 5V34h3.5c15.7 0 31.5-.3 47.2.2 15.2.5 27.3 13.3 28 28.6v265.7c0 15.6-10.3 29.3-26.2 31.5a30.8 30.8 0 0 1-4.3.2H30.3C13.3 360 0 347 0 329.7V63.5C0 46.7 13.4 34 31 33.8H78.7V31 11.5a10.8 10.8 0 0 1 7-10.5c4.3-2 8.4-1 12 2 2.8 2.6 3.6 6 3.6 9.7v21h67.4v-3V12c0-6.8 4.7-11.8 11-12s11.2 4.2 11.5 11c.5 6.4.2 12.8.3 19v3.7zM78.7 56.5a14.7 14.7 0 0 0-1.5 0c-15.6 0-31-.2-46.7 0-5.3 0-8 3-8 8.6v263.6c0 6 2.8 9 9 9h297c6.2 0 9-3 9-9V65.3c0-6.2-2.8-9-9-9H284c-1 0-1.8 0-2.8.2v21.3c0 3.6-1 7-3.8 9.4-3.5 3-7.5 3.8-12 2-4.5-2-6.7-5.8-6.7-10.7V59.3v-2.8h-67.4V60c0 6.7 0 13.4-.3 20-.2 5-3.2 8-7.7 9.5-7.5 2.4-14.3-3-14.5-11-.2-6.5 0-13 0-19.3 0-1 0-1.8-.2-2.6h-67.3v5c0 6.2.2 12.6-.3 19s-7.3 10.8-13.7 9c-5.4-1.3-8.5-5.4-8.6-11.6V56.5z"/>
</svg>